<?xml version="1.0" standalone="no"?><!DOCTYPE svg PUBLIC "-//W3C//DTD SVG 1.1//EN" "http://www.w3.org/Graphics/SVG/1.1/DTD/svg11.dtd"><svg class="icon" width="200px" height="200.00px" viewBox="0 0 1024 1024" version="1.1" xmlns="http://www.w3.org/2000/svg"><path fill="#333333" d="M224 672h-64c-19.2 0-32 16-32 32v64c0 19.2 16 32 32 32h64c19.2 0 32-16 32-32v-64c0-19.2-16-32-32-32z m128-352h512c16 0 32-12.8 32-32s-12.8-32-32-32H352c-16 0-32 12.8-32 32s12.8 32 32 32zM224 448h-64c-19.2 0-32 16-32 32v64c0 19.2 16 32 32 32h64c19.2 0 32-16 32-32v-64c0-19.2-16-32-32-32z m640 32H352c-16 0-32 12.8-32 32s12.8 32 32 32h512c16 0 32-12.8 32-32s-12.8-32-32-32z m0 224H352c-16 0-32 12.8-32 32s12.8 32 32 32h512c16 0 32-12.8 32-32s-12.8-32-32-32zM224 224h-64c-19.2 0-32 16-32 32v64c0 19.2 16 32 32 32h64c19.2 0 32-16 32-32v-64c0-19.2-16-32-32-32z"  /></svg>